<svg xmlns="http://www.w3.org/2000/svg" viewBox="0 0 1280 360" width="1280" height="360" role="img" aria-label="Qyra: the offline PDF toolkit">
  <defs>
    <linearGradient id="bg" x1="0" y1="0" x2="1" y2="1">
      <stop offset="0%" stop-color="#0d0d0e"/>
      <stop offset="100%" stop-color="#141416"/>
    </linearGradient>
    <linearGradient id="paper" x1="0" y1="0" x2="0" y2="1">
      <stop offset="0%" stop-color="#ededee"/>
      <stop offset="100%" stop-color="#bcbdc0"/>
    </linearGradient>
    <radialGradient id="amberGlow" cx="0.78" cy="0.5" r="0.55">
      <stop offset="0%" stop-color="#e8a14b" stop-opacity="0.18"/>
      <stop offset="60%" stop-color="#e8a14b" stop-opacity="0.04"/>
      <stop offset="100%" stop-color="#e8a14b" stop-opacity="0"/>
    </radialGradient>
    <pattern id="grid" width="32" height="32" patternUnits="userSpaceOnUse">
      <path d="M 32 0 L 0 0 0 32" fill="none" stroke="#ffffff" stroke-opacity="0.025" stroke-width="1"/>
    </pattern>
    <filter id="soft" x="-20%" y="-20%" width="140%" height="140%">
      <feGaussianBlur stdDeviation="12"/>
    </filter>
  </defs>

  <rect width="1280" height="360" fill="url(#bg)"/>
  <rect width="1280" height="360" fill="url(#grid)"/>
  <rect width="1280" height="360" fill="url(#amberGlow)"/>

  <!-- Stacked PDF pages, right side -->
  <g transform="translate(880,60)" filter="url(#soft)" opacity="0.5">
    <rect x="40" y="40" width="220" height="260" rx="8" fill="#e8a14b" opacity="0.25"/>
  </g>
  <g transform="translate(880,60)">
    <rect x="60" y="50" width="220" height="260" rx="8" fill="url(#paper)" stroke="#2a2a2f" stroke-width="1"/>
    <rect x="40" y="30" width="220" height="260" rx="8" fill="url(#paper)" stroke="#2a2a2f" stroke-width="1"/>
    <rect x="20" y="10" width="220" height="260" rx="8" fill="url(#paper)" stroke="#2a2a2f" stroke-width="1"/>
    <g fill="#1a1a1d" opacity="0.55">
      <rect x="40"  y="40" width="120" height="8" rx="1.5"/>
      <rect x="40"  y="60" width="180" height="5" rx="1"/>
      <rect x="40"  y="74" width="160" height="5" rx="1"/>
      <rect x="40"  y="88" width="170" height="5" rx="1"/>
      <rect x="40" y="110" width="100" height="5" rx="1"/>
      <rect x="40" y="124" width="180" height="5" rx="1"/>
      <rect x="40" y="138" width="140" height="5" rx="1"/>
      <rect x="40" y="160" width="180" height="5" rx="1"/>
      <rect x="40" y="174" width="120" height="5" rx="1"/>
    </g>
    <rect x="40" y="220" width="80" height="22" rx="3" fill="#e8a14b"/>
    <text x="80" y="236" font-family="Inter, sans-serif" font-size="11" font-weight="700" fill="#1a1208" text-anchor="middle">Qyra</text>
  </g>

  <!-- Title -->
  <g transform="translate(80,150)" font-family="Inter, Geist, system-ui, sans-serif">
    <text font-size="120" font-weight="800" fill="#ededee" letter-spacing="-4">Qyra</text>
    <!-- amber underline accent (matches viewer aria-current rail) -->
    <rect x="2" y="14" width="48" height="3" rx="1.5" fill="#e8a14b"/>
    <text y="56" font-size="22" font-weight="500" fill="#9fa0a4" letter-spacing="0.2">
      The offline, open-source PDF toolkit.
    </text>
    <text y="86" font-size="14" font-weight="400" fill="#6b6c70" letter-spacing="0.3" font-family="ui-monospace, 'JetBrains Mono', monospace">
      view · annotate · merge · split · ocr · convert · protect
    </text>
    <!-- pills -->
    <g transform="translate(0,108)" font-size="11.5" font-weight="600">
      <g>
        <rect width="116" height="26" rx="3" fill="#1a1a1d" stroke="#2a2a2f"/>
        <circle cx="14" cy="13" r="3" fill="#e8a14b"/>
        <text x="26" y="17" fill="#ededee">100% offline</text>
      </g>
      <g transform="translate(128,0)">
        <rect width="130" height="26" rx="3" fill="#1a1a1d" stroke="#2a2a2f"/>
        <circle cx="14" cy="13" r="3" fill="#e8a14b"/>
        <text x="26" y="17" fill="#ededee">MuPDF + Rust</text>
      </g>
      <g transform="translate(270,0)">
        <rect width="86" height="26" rx="3" fill="#1a1a1d" stroke="#2a2a2f"/>
        <circle cx="14" cy="13" r="3" fill="#e8a14b"/>
        <text x="26" y="17" fill="#ededee">GPL-3.0</text>
      </g>
    </g>
  </g>
</svg>
